<?xml version="1.0" encoding="UTF-8" standalone="no"?>
<svg
   xmlns:dc="http://purl.org/dc/elements/1.1/"
   xmlns:cc="http://creativecommons.org/ns#"
   xmlns:rdf="http://www.w3.org/1999/02/22-rdf-syntax-ns#"
   xmlns:svg="http://www.w3.org/2000/svg"
   xmlns="http://www.w3.org/2000/svg"
   xmlns:sodipodi="http://sodipodi.sourceforge.net/DTD/sodipodi-0.dtd"
   xmlns:inkscape="http://www.inkscape.org/namespaces/inkscape"
   width="338.66666mm"
   height="230.43854mm"
   viewBox="0 0 338.66666 230.43854"
   version="1.1"
   id="svg1383"
   inkscape:version="1.0.1 (3bc2e813f5, 2020-09-07)"
   sodipodi:docname="McDonald's_(1968).svg">
  <defs
     id="defs1377">
    <clipPath
       clipPathUnits="userSpaceOnUse"
       id="clipPath1023">
      <path
         d="M 458.17,423 H 576 V 330.55 H 458.17 Z"
         id="path1021"
         inkscape:connector-curvature="0"
         style="clip-rule:evenodd" />
    </clipPath>
  </defs>
  <sodipodi:namedview
     id="base"
     pagecolor="#ffffff"
     bordercolor="#666666"
     borderopacity="1.0"
     inkscape:pageopacity="0.0"
     inkscape:pageshadow="2"
     inkscape:zoom="0.53984376"
     inkscape:cx="639.99999"
     inkscape:cy="435.47439"
     inkscape:document-units="mm"
     inkscape:current-layer="layer1"
     inkscape:document-rotation="0"
     showgrid="false"
     inkscape:window-width="1366"
     inkscape:window-height="706"
     inkscape:window-x="-8"
     inkscape:window-y="-8"
     inkscape:window-maximized="1" />
  <metadata
     id="metadata1380">
    <rdf:RDF>
      <cc:Work
         rdf:about="">
        <dc:format>image/svg+xml</dc:format>
        <dc:type
           rdf:resource="http://purl.org/dc/dcmitype/StillImage" />
        <dc:title></dc:title>
      </cc:Work>
    </rdf:RDF>
  </metadata>
  <g
     inkscape:label="Layer 1"
     inkscape:groupmode="layer"
     id="layer1"
     transform="translate(98.273773,-111.06828)">
    <g
       id="g638"
       transform="matrix(2.4806203,0,0,2.4806203,-1080.3001,15.706186)">
      <path
         id="path1029"
         style="fill:#fab217;fill-opacity:1;fill-rule:nonzero;stroke:none;stroke-width:1.15978"
         d="m 458.73041,125.83287 h -12.70308 c 0,0 -0.0418,-4.20655 -0.22389,-9.75377 h 13.15189 c -0.18218,5.54722 -0.22492,9.75377 -0.22492,9.75377 z m 48.45675,5.5055 h -11.27657 c -0.14728,-3.94443 -0.57756,-9.3444 -1.16094,-15.25927 h 11.4807 c 0.53232,5.10768 0.87561,10.24434 0.95681,15.25927 z M 489.41002,75.949442 c -1.47559,-6.696763 -13.46005,-65.916168 -27.16327,-1.459006 -1.38324,6.506464 -2.29173,15.465702 -2.8867,24.081728 h -14.42654 c -0.59381,-8.616026 -1.50246,-17.575481 -2.88554,-24.081728 -13.70221,-64.457379 -25.85326,-5.237442 -27.32912,1.459006 -1.72514,7.827511 -5.97056,41.127048 -6.50174,55.388908 h -12.33777 c 0.53118,-20.36463 8.22535,-52.33746 12.47114,-64.675289 3.48184,-10.117884 19.78695,-49.93556 35.28871,-12.471143 1.59228,3.848204 7.66153,20.829697 8.4583,28.921502 0.79561,-8.091805 6.79865,-25.073343 8.39102,-28.921502 15.50282,-37.464462 31.80789,2.353308 35.28872,12.471143 2.37607,6.906616 5.5426,18.612194 7.93987,31.909103 h -10.93675 c -1.25257,-10.041399 -2.57739,-19.024095 -3.37033,-22.622722 z"
         sodipodi:nodetypes="cccccccccccccccccccccccccc" />
      <path
         id="path1031"
         style="fill:#000000;fill-opacity:1;fill-rule:nonzero;stroke:none;stroke-width:1.15978"
         d="m 500.85024,100.41636 v 13.54249 h 4.07187 v -13.54249 z m 13.24591,0 v 3.544 c -0.90579,-1.10294 -2.08544,-1.44253 -3.44469,-1.44253 -2.57472,0 -4.57206,2.39822 -4.57206,6.09214 0,3.14068 1.64808,5.60526 4.90129,5.66678 1.57962,0.0302 2.75688,-0.11928 3.3159,-1.00765 v 0.68975 h 3.85147 v -13.54249 z m 5.86722,0.003 -0.52197,3.85962 h 2.07969 l 1.12238,-3.85962 z m -74.54602,0.003 v 13.53795 h 7.08936 c 4.78876,0 7.91924,-1.95517 7.91924,-7.05127 0,-4.45588 -3.54905,-6.48668 -8.35867,-6.48668 z m -29.60499,0.004 -2.20214,13.53432 h 3.95486 l 1.2675,-6.11436 2.23841,6.11436 h 3.4134 l 2.23841,-6.11436 1.26749,6.11436 h 4.25281 l -2.20123,-13.53432 h -5.0913 l -1.87426,6.5098 -2.17356,-6.5098 z m 22.68206,1.70602 c -3.52691,0 -6.09487,2.2741 -6.09487,6.22547 0,3.90731 2.65031,6.00553 6.09487,6.00553 3.48746,0 5.60056,-1.45459 5.60056,-4.81332 h -3.94897 c -0.12177,0.85707 -0.55098,1.72235 -1.65159,1.72235 -1.2433,0 -1.85431,-1.14802 -1.85431,-2.89234 0,-1.57847 0.26424,-3.39843 1.85431,-3.39843 0.51842,0 0.83629,0.15422 1.10061,0.46392 0.26573,0.28644 0.42921,0.92547 0.44895,1.43347 h 3.96983 c -0.3062,-3.42253 -2.66518,-4.74665 -5.51939,-4.74665 z m 28.97147,0 c -3.75652,0 -6.30347,2.23014 -6.30347,6.24995 0,3.95255 2.75891,5.98423 6.32524,5.98423 3.56517,0 6.32569,-1.9876 6.32569,-6.22775 0,-3.59998 -2.42042,-6.00643 -6.34746,-6.00643 z m 59.37959,0.23309 c -2.15487,0 -4.90491,0.84518 -4.90491,3.74581 0,4.39559 6.08443,2.84142 6.08443,4.76432 0,0.71334 -0.52307,0.95764 -1.04029,0.95143 -0.49409,-0.006 -0.75316,-0.12848 -1.00901,-0.34601 -0.27883,-0.23707 -0.45122,-0.85009 -0.45122,-1.30469 h -3.86689 c 0.21689,3.05254 2.4278,4.18569 5.16839,4.18569 3.79826,0 5.57835,-1.60284 5.57835,-3.96303 0,-4.24363 -6.32836,-2.7726 -6.33114,-4.68044 -7.3e-4,-0.49754 0.3503,-0.88384 1.01717,-0.88384 0.36187,0 0.54691,0.087 0.76413,0.28162 0.21772,0.1951 0.35595,0.60301 0.39544,0.97181 h 3.7381 c -0.23661,-3.00961 -2.47968,-3.72267 -5.14255,-3.72267 z m -47.86329,1.48336 v -1.01128 h -4.10995 v 11.12262 h 4.11947 v -5.36973 c 0,-1.42192 0.51502,-2.29147 1.83255,-2.29147 1.21544,0 1.63527,0.97628 1.63527,2.07923 v 5.58197 h 4.15212 v -6.66489 c 0,-3.05722 -1.45218,-4.77614 -4.13126,-4.77588 -1.16212,2.5e-4 -2.52978,-0.008 -3.4982,1.32943 z m 9.49875,2.4062 h 3.57211 c 0.0951,-0.95583 0.83963,-1.08202 1.39402,-1.08202 0.22384,0 0.96729,0.0152 0.96729,0.62989 0,2.07137 -6.67805,-0.69807 -6.67805,4.70765 0,2.3138 1.89893,3.59706 3.45648,3.76802 1.78262,0.19567 2.86699,-0.0288 3.76348,-0.92647 l 0.19138,0.60858 3.56849,0.004 0.004,-6.83904 c 0.002,-2.65246 -0.2865,-4.60561 -5.02437,-4.6058 -3.78806,-1.9e-4 -5.21483,1.37852 -5.21483,3.73519 z m -38.37,-2.59667 h 1.1319 c 2.61181,0 4.68906,0.86978 4.68906,3.6347 0,2.50628 -2.30598,3.70817 -4.58612,3.70817 h -1.23484 z m 17.42887,1.59129 c 1.29083,-0.0649 2.10282,1.21216 2.10282,2.90776 0,2.18038 -0.81183,3.1277 -2.15135,3.1277 -1.2665,0 -2.15134,-0.94732 -2.15134,-3.1277 0,-1.29895 0.50196,-2.90776 2.19987,-2.90776 z m 44.62403,0.5265 c 1.50886,0 1.94591,1.41956 1.94591,2.72545 0,1.37552 -0.50311,2.74995 -2.07697,2.74995 -1.48694,0 -1.79309,-1.44282 -1.79309,-2.68147 0,-1.30708 0.41643,-2.79393 1.92415,-2.79393 z m -17.51503,2.79982 c 0.0939,1.4973 -0.35609,2.68238 -1.72234,2.68238 -0.7666,0 -1.2353,-0.37423 -1.2353,-0.91468 0,-1.41379 1.68535,-1.08108 2.95764,-1.7677 z"
         sodipodi:nodetypes="ccccccccccccccccccccccccccccccccccccccccccccccccccccccccccccccccccccccccccccccccccccccccccccccccccccccccccccccccccccc" />
    </g>
  </g>
  <style
     type="text/css"
     id="style7166">
	.st0{fill:#FFCB05;}
	.st1{fill:#00B6F1;}
	.st2{fill:#ED1C24;}
</style>
  <style
     id="style7166-9"
     type="text/css">
	.st0{fill:#FFCB05;}
	.st1{fill:#00B6F1;}
	.st2{fill:#ED1C24;}
</style>
  <style
     id="style7166-0"
     type="text/css">
	.st0{fill:#FFCB05;}
	.st1{fill:#00B6F1;}
	.st2{fill:#ED1C24;}
</style>
  <style
     type="text/css"
     id="style7166-5">
	.st0{fill:#FFCB05;}
	.st1{fill:#00B6F1;}
	.st2{fill:#ED1C24;}
</style>
  <style
     id="style7166-6"
     type="text/css">
	.st0{fill:#FFCB05;}
	.st1{fill:#00B6F1;}
	.st2{fill:#ED1C24;}
</style>
  <style
     type="text/css"
     id="style7166-5-0">
	.st0{fill:#FFCB05;}
	.st1{fill:#00B6F1;}
	.st2{fill:#ED1C24;}
</style>
  <style
     type="text/css"
     id="style7166-55">
	.st0{fill:#FFCB05;}
	.st1{fill:#00B6F1;}
	.st2{fill:#ED1C24;}
</style>
</svg>
